<svg width="100" height="142" viewBox="0 0 100 142" fill="none" xmlns="http://www.w3.org/2000/svg">
<path d="M84.3927 127.535C83.8198 127.535 83.3742 128.045 83.3742 128.554V134.665C83.3742 135.238 83.8198 135.684 84.3927 135.684C84.902 135.684 85.4113 135.238 85.4113 134.665V128.554C85.4113 128.045 84.902 127.535 84.3927 127.535ZM88.4669 127.535C87.894 127.535 87.4484 128.045 87.4484 128.554V134.665C87.4484 135.238 87.894 135.684 88.4033 135.684C88.9125 135.684 89.4855 135.238 89.4855 134.665L89.4218 128.554C89.4218 128.045 88.9762 127.535 88.4669 127.535ZM95.0875 122.061C94.2599 120.978 92.9231 120.278 91.4589 120.278H90.6313C90.3767 120.278 90.1221 120.342 89.9311 120.342C89.1035 119.769 88.1486 119.387 87.1301 119.387H86.3662V113.785C86.3662 111.302 84.3291 109.201 81.7827 109.201C79.3 109.201 77.1993 111.302 77.1993 113.785V124.543C76.499 124.225 75.9261 124.225 75.5441 124.225C72.7431 124.225 71.1516 126.58 71.1516 128.681C71.1516 129.636 71.4063 130.527 71.9792 131.291L77.0083 137.975C78.7907 140.394 81.7191 141.795 84.711 141.795H91.7135C92.0955 141.795 92.5411 141.795 92.8594 141.668C94.7055 141.286 96.297 140.394 97.5065 139.058C98.907 137.657 99.6709 135.747 99.6709 133.71V126.708C99.6709 124.161 97.6338 122.124 95.0875 122.061ZM96.6153 133.71C96.6153 134.92 96.106 136.129 95.2784 137.02C94.5145 137.848 93.4323 138.421 92.0955 138.676C91.9682 138.739 91.8409 138.739 91.7135 138.739H84.711C82.6739 138.739 80.7005 137.784 79.4273 136.129L74.4619 129.509C74.2709 129.254 74.2073 128.936 74.2073 128.681C74.2073 127.599 75.0985 127.281 75.5441 127.281C75.8624 127.281 76.308 127.344 76.69 127.854L78.4724 130.209C78.6634 130.464 78.9817 130.655 79.3 130.655C80.0003 130.655 80.3186 129.954 80.3186 129.636V113.785C80.3186 112.957 80.9551 112.257 81.7827 112.257C82.6103 112.257 83.3105 112.957 83.3105 113.785V122.124C83.3105 122.57 83.6288 123.143 84.3291 123.143C85.093 123.143 85.1566 122.443 86.2389 122.443H87.1301C88.4669 122.443 88.2759 123.716 89.3581 123.716C89.8674 123.716 89.9311 123.334 90.6313 123.334H91.4589C93.1777 123.334 92.6048 125.116 94.0689 125.116H94.9602C95.8514 125.116 96.5516 125.816 96.5516 126.708V133.71H96.6153ZM92.5411 127.535C91.9682 127.535 91.5226 128.045 91.5226 128.554V134.665C91.5226 135.238 91.9682 135.684 92.5411 135.684C93.0504 135.684 93.5597 135.238 93.5597 134.665V128.554C93.5597 128.045 93.0504 127.535 92.5411 127.535Z" fill="#D8D8D8"/>
<line x1="71.7366" y1="107.59" x2="34.9412" y2="41.6653" stroke="#A6A2A2" stroke-width="1.65349" stroke-dasharray="3.31 3.31"/>
<path d="M39.4658 15.9187C35.8275 7.63169 28.5511 1.97223 20.3314 1.97223C12.0444 1.97223 4.76793 7.63169 1.12971 15.9187C0.994963 16.2556 0.927588 16.7272 0.927588 17.0641C0.927588 17.401 0.994963 17.94 1.12971 18.2768C4.76793 26.5639 12.0444 32.156 20.3314 32.156C28.5511 32.156 35.8275 26.5639 39.4658 18.2768C39.6005 17.94 39.7353 17.401 39.7353 17.0641C39.7353 16.7272 39.6005 16.2556 39.4658 15.9187ZM20.3314 28.922C13.594 28.922 7.39553 24.4079 4.16156 17.1315C7.46291 9.78767 13.594 5.20621 20.3314 5.20621C27.0015 5.20621 33.1999 9.78767 36.4339 17.0641C33.1326 24.4079 27.0015 28.922 20.3314 28.922ZM20.3314 8.44018C15.5478 8.44018 11.7075 12.3479 11.7075 17.0641C11.7075 21.8477 15.5478 25.688 20.3314 25.688C25.0476 25.688 28.9554 21.8477 28.9554 17.1315C28.9554 12.3479 25.0476 8.44018 20.3314 8.44018ZM20.3314 22.4541C17.2996 22.4541 14.9415 20.096 14.9415 17.0641C14.9415 17.0641 14.9415 16.9967 14.9415 16.9294C15.2783 17.0641 15.6152 17.0641 16.0195 17.0641C18.3776 17.0641 20.3314 15.1776 20.3314 12.7521C20.3314 12.4153 20.2641 12.0784 20.1293 11.7415C20.1967 11.7415 20.2641 11.6742 20.3314 11.6742C23.2959 11.6742 25.7214 14.0996 25.7214 17.1315C25.7214 20.096 23.2959 22.4541 20.3314 22.4541Z" fill="#D8D8D8"/>
</svg>
