<svg width="33" height="140" viewBox="0 0 33 140" fill="none" xmlns="http://www.w3.org/2000/svg">
<path d="M23.8477 127.648C23.4302 127.648 23.0962 127.774 22.804 127.982C22.5952 127.022 21.802 126.312 20.8418 126.312C20.0903 126.312 19.4641 126.73 19.1301 127.314C18.9214 126.354 18.1282 125.645 17.168 125.645C16.6252 125.645 16.166 125.853 15.832 126.187V119.967C15.832 119.048 15.0806 118.297 14.1621 118.297C13.2019 118.297 12.4922 119.048 12.4922 119.967V133.451L10.1543 130.32C9.82031 129.903 9.31934 129.652 8.77661 129.652C7.8999 129.652 7.14844 130.404 7.14844 131.364C7.14844 131.698 7.23193 132.032 7.48242 132.324L11.2815 137.417C12.3252 138.837 14.0369 139.672 15.832 139.672H19.8398C23.1379 139.672 25.8516 137 25.8516 133.66V129.652C25.8516 128.567 24.9331 127.648 23.8477 127.648ZM17.168 134.996C17.168 135.372 16.834 135.664 16.5 135.664C16.1243 135.664 15.832 135.372 15.832 134.996V130.988C15.832 130.654 16.1243 130.32 16.5 130.32C16.834 130.32 17.168 130.654 17.168 130.988V134.996ZM19.8398 134.996C19.8398 135.372 19.5059 135.664 19.1719 135.664C18.7961 135.664 18.5039 135.372 18.5039 134.996V130.988C18.5039 130.654 18.7961 130.32 19.1719 130.32C19.5059 130.32 19.8398 130.654 19.8398 130.988V134.996ZM22.5117 134.996C22.5117 135.372 22.1777 135.664 21.8438 135.664C21.468 135.664 21.1758 135.372 21.1758 134.996V130.988C21.1758 130.654 21.468 130.32 21.8438 130.32C22.1777 130.32 22.5117 130.654 22.5117 130.988V134.996Z" fill="#E5E5E5"/>
<path d="M16.5 6.1875C9.625 6.1875 3.75375 10.4638 1.375 16.5C3.75375 22.5362 9.625 26.8125 16.5 26.8125C23.375 26.8125 29.2462 22.5362 31.625 16.5C29.2462 10.4638 23.375 6.1875 16.5 6.1875ZM16.5 23.375C12.705 23.375 9.625 20.295 9.625 16.5C9.625 12.705 12.705 9.625 16.5 9.625C20.295 9.625 23.375 12.705 23.375 16.5C23.375 20.295 20.295 23.375 16.5 23.375ZM16.5 12.375C14.2175 12.375 12.375 14.2175 12.375 16.5C12.375 18.7825 14.2175 20.625 16.5 20.625C18.7825 20.625 20.625 18.7825 20.625 16.5C20.625 14.2175 18.7825 12.375 16.5 12.375Z" fill="#E6E6E6"/>
<line x1="15.6733" y1="104.004" x2="15.6733" y2="41.9958" stroke="#A6A2A2" stroke-width="1.65349" stroke-dasharray="3.31 3.31"/>
</svg>
