<svg width="41" height="173" viewBox="0 0 41 173" fill="none" xmlns="http://www.w3.org/2000/svg">
<g clip-path="url(#clip0_1175_117)">
<path d="M19.3677 121.105V44.4805" stroke="black" stroke-width="2.47143" stroke-dasharray="4.09 4.09"/>
<rect width="15.5294" height="12.9412" transform="translate(16.5293 150.412)" fill="white"/>
<path d="M33.1429 147.499C32.3393 147.499 31.6964 147.721 31.134 148.088C30.7321 146.394 29.2053 145.142 27.3571 145.142C25.9106 145.142 24.7053 145.879 24.0624 146.91C23.6607 145.216 22.1339 143.965 20.2857 143.965C19.2409 143.965 18.3571 144.332 17.7142 144.921V133.947C17.7142 132.325 16.2679 131 14.5 131C12.6518 131 11.2857 132.325 11.2857 133.947V157.738L6.7857 152.213C6.14284 151.478 5.17857 151.035 4.13392 151.035C2.44642 151.035 1 152.362 1 154.056C1 154.645 1.1607 155.234 1.64285 155.749L8.95535 164.735C10.9643 167.241 14.259 168.714 17.7142 168.714H25.4284C31.7766 168.714 37 164 37 158.107V151.035C37 149.12 35.2321 147.499 33.1429 147.499ZM20.2857 160.464C20.2857 161.127 19.6428 161.642 19 161.642C18.2768 161.642 17.7142 161.127 17.7142 160.464V153.392C17.7142 152.803 18.2768 152.213 19 152.213C19.6428 152.213 20.2857 152.803 20.2857 153.392V160.464ZM25.4284 160.464C25.4284 161.127 24.7857 161.642 24.1429 161.642C23.4195 161.642 22.8571 161.127 22.8571 160.464V153.392C22.8571 152.803 23.4195 152.213 24.1429 152.213C24.7857 152.213 25.4284 152.803 25.4284 153.392V160.464ZM30.5713 160.464C30.5713 161.127 29.9284 161.642 29.2858 161.642C28.5624 161.642 28 161.127 28 160.464V153.392C28 152.803 28.5624 152.213 29.2858 152.213C29.9284 152.213 30.5713 152.803 30.5713 153.392V160.464Z" fill="white" stroke="black" stroke-width="1.5"/>
<path d="M0.75 18C0.75 18 7.75 4 20 4C32.25 4 39.25 18 39.25 18C39.25 18 32.25 32 20 32C7.75 32 0.75 18 0.75 18Z" fill="white" stroke="black" stroke-width="2" stroke-linecap="round" stroke-linejoin="round"/>
<path d="M20 23.25C22.8995 23.25 25.25 20.8995 25.25 18C25.25 15.1005 22.8995 12.75 20 12.75C17.1005 12.75 14.75 15.1005 14.75 18C14.75 20.8995 17.1005 23.25 20 23.25Z" fill="#C4C4C4" stroke="black" stroke-width="2" stroke-linecap="round" stroke-linejoin="round"/>
</g>
<defs>
<clipPath id="clip0_1175_117">
<rect width="40.7786" height="173" fill="white"/>
</clipPath>
</defs>
</svg>
