<svg viewBox="0 0 1039.9999999999998 1039.9999999999998" xmlns="http://www.w3.org/2000/svg" overflow="visible" xmlns:xlink="http://www.w3.org/1999/xlink" width="1039.9999999999998px" height="1039.9999999999998px"><g id="Master/Composition/Color Comp" stroke="none" stroke-width="1" fill="none" fill-rule="evenodd"><g id="Color/Bottom" transform="scale(1 1)"><g id="Color/Bottom/Balance" stroke="none" stroke-width="1" fill="none" fill-rule="evenodd"><g id="Color" transform="translate(20.000000, 373.000000)"><path d="M144.4153,439.0168 C159.6763,448.4758 166.5343,467.5878 178.3743,480.8148 C202.4643,509.1908 211.3243,547.7698 234.3223,576.1498 C247.7743,583.8908 252.2543,600.3418 263.0083,611.0368 C269.0133,618.1098 302.0763,660.5958 286.4863,664.2888 C270.4253,673.2848 256.9233,655.8338 241.8413,653.0638 C201.5373,653.7338 161.4513,647.9588 121.1383,648.5378 C86.2273,648.0468 52.2153,656.0948 17.5623,659.5358 C-32.2747,660.9818 41.3513,611.0688 26.3603,592.5228 C8.5513,557.6608 83.1103,526.1338 97.9123,499.4658 C104.4453,482.3358 124.8913,471.1758 127.7113,453.7028 C126.3763,444.4548 138.7873,443.5928 144.4153,439.0168" id="Fill-1" fill="#FF3B53"/><path d="M248.1626,117.3981 C246.2256,114.0021 242.1896,110.2611 238.4316,111.7801 C235.0296,115.1311 246.2846,127.1711 248.1626,117.3981 M143.1256,230.0201 C119.7226,218.2741 109.7346,186.9061 95.7566,165.4221 C81.7546,138.0441 59.5796,116.4881 39.9506,92.9101 C38.0476,90.1711 36.2336,87.5871 32.3116,87.6201 C22.2286,82.3651 32.7206,64.3071 41.5616,61.3761 C78.9636,44.1591 104.4996,7.3521 148.0026,2.7451 C181.9946,-13.6409 217.5576,90.7731 231.8806,89.3751 C259.9396,87.3281 276.9336,111.1751 259.1656,135.1211 C251.4346,144.7391 268.9456,158.0291 255.6336,165.5651 C213.1916,178.6101 184.3226,216.2381 143.1256,230.0201" id="Fill-3" fill="#FFC43C"/><path d="M317.0159,250.4538 C317.7729,246.3608 317.9889,242.7948 313.3909,240.2148 C304.8359,228.3558 321.5159,214.2198 330.7029,207.7828 C341.0299,202.1828 352.3189,189.6428 364.8469,194.9278 C380.6249,198.5968 398.5659,190.9008 410.0699,206.6198 C436.3489,247.9238 450.7899,290.2788 384.5919,291.2318 C349.2949,294.3958 318.5979,294.0968 317.0159,250.4538" id="Fill-6" fill="#3E5DFF"/><path d="M516.2767,620.7492 C504.0787,616.2372 486.6217,622.5222 480.4597,608.6032 C476.9757,600.7802 468.6767,598.0312 464.5507,591.1452 C461.6687,588.5852 455.7617,590.2382 452.0637,589.6642 C442.3317,588.4092 437.1987,581.2142 439.4047,571.3012 C440.0397,562.6622 429.6717,556.6752 439.8437,550.1422 C447.2067,544.4152 505.6447,510.4902 507.9467,525.3092 C513.7967,529.2612 520.2817,523.7872 521.2587,534.3442 C526.8367,550.6172 542.6257,525.7822 550.1697,541.8492 C559.9407,549.0032 553.3717,567.0842 567.9627,563.5072 C569.3497,563.6602 571.5087,564.1602 571.8637,565.0742 C574.1067,571.2912 581.7687,579.4912 574.9467,585.3332 C557.2337,599.1772 537.2557,612.7702 516.2767,620.7492" id="Fill-8" fill="#3BC5FF"/><path d="M437.2456,472.3722 C421.0826,464.9032 399.9086,456.8312 395.0766,437.7742 C394.8466,436.5832 392.6386,435.0272 391.2856,434.9652 C382.3616,435.6492 373.3036,437.3172 364.3026,437.3192 C347.7396,434.6152 357.8906,414.2182 368.1826,409.6422 C387.5466,400.9352 403.7516,385.0082 425.5176,383.5262 C433.4586,381.3312 442.1726,393.7852 437.9906,400.7792 C436.7236,402.7622 436.1716,404.5222 439.5786,405.4152 C447.7276,408.6802 455.1946,420.6262 445.5326,426.4512 C428.9576,437.8892 482.0726,461.5282 437.2456,472.3722" id="Fill-10" fill="#FFC43C"/><path d="M99.2688,414.5514 C57.6908,401.9424 202.0928,298.1624 219.1428,285.3774 C225.1788,280.4664 233.3558,287.0644 230.4548,294.1474 C222.8288,313.6844 202.3408,324.0834 188.3758,338.7804 C158.7388,362.5664 133.2478,398.7714 99.2688,414.5514" id="Fill-12" fill="#3BC5FF"/><path d="M73.5376,386.5275 C47.6116,380.2295 93.3976,339.7545 101.0586,329.6455 C124.6486,297.6055 274.8376,208.9015 167.6316,299.2985 C153.9296,310.6295 139.6176,321.2975 126.6286,333.3905 C107.6786,349.1445 95.1206,374.6325 73.5376,386.5275" id="Fill-14" fill="#3BC5FF"/><path d="M144.4153,439.0168 C69.2003,459.8158 229.2083,336.4918 240.0453,325.9298 C285.7333,323.5218 150.9763,424.1508 144.4153,439.0168" id="Fill-16" fill="#3BC5FF"/><path d="M147.3335,244.3317 C168.0045,248.1977 116.5075,286.6237 110.8455,294.3647 C95.1895,307.4627 84.8695,325.5287 70.6745,339.6687 C65.4285,344.1937 56.1375,336.1317 59.3635,329.9497 C79.8845,294.5247 114.7255,267.8057 147.3335,244.3317" id="Fill-18" fill="#3BC5FF"/></g><g id="Ink" transform="translate(0.000000, 350.000000)" fill="#000"><path d="M159.7036,17.1961 C138.7036,33.5971 116.5476,48.1221 94.0356,62.4221 C78.8786,72.9451 61.5576,80.7101 47.9766,93.3111 C40.4586,100.6451 54.0616,106.1831 57.6066,111.8001 C95.0386,156.1961 132.1446,200.7941 169.5366,245.1381 C171.8756,248.2071 174.6306,245.7481 176.5286,243.3281 C205.0986,209.4091 239.6746,180.9381 267.2496,146.3151 C278.6296,139.3361 232.7436,104.3801 226.8736,95.5631 C199.5456,73.7511 183.1616,42.2611 159.7036,17.1961 M154.4966,269.2471 C72.6756,262.9521 44.5296,353.1301 90.2296,411.1701 C96.6096,422.8331 150.5266,448.2281 162.5076,443.3341 C172.5606,439.3571 177.5866,454.4731 187.7136,452.7471 C315.9356,449.0281 291.2086,264.9241 154.4966,269.2471 M167.1986,669.9231 C199.7256,670.1061 253.8886,670.3361 291.8246,667.8651 C294.6286,667.7461 295.6626,665.7931 294.1986,663.4371 C278.1046,639.2771 265.6246,612.6801 248.1276,589.4641 C220.8226,550.0171 190.5856,512.8511 165.2186,472.1181 C159.4786,464.8381 141.4766,496.7891 135.1416,500.8381 C92.0566,551.8101 57.9556,609.9031 21.8346,665.8881 C18.7426,669.9391 23.0196,672.1661 26.8946,671.6831 C76.4686,672.6251 111.3146,671.0791 167.1986,669.9231 M281.3346,155.4871 C252.4736,186.2401 222.1856,215.5981 193.0116,246.2171 C187.5316,251.2171 184.8836,255.6871 194.2326,257.4481 C310.0776,282.6891 316.3656,457.1151 190.7776,467.3831 C208.2156,503.6121 237.9356,532.6611 257.1626,568.1611 C281.3786,599.2851 294.2356,639.0361 318.7056,669.0211 C321.3466,669.7121 321.0946,673.4391 320.3816,675.6841 C324.2146,683.1301 315.9716,687.4021 309.6116,686.3371 C275.0046,686.5251 240.0636,685.9611 205.4816,688.3731 C149.8036,687.4161 93.7516,690.8581 37.9396,686.5361 C28.3276,683.7621 -2.7054,689.0701 0.1896,674.2451 C33.8966,595.4031 91.0576,529.7441 143.0386,462.8911 C150.7706,450.4981 84.6646,446.5811 70.0586,407.6131 C30.3146,335.8041 59.9386,254.4261 148.8956,253.0611 C161.2276,251.2191 112.0576,207.2601 107.1786,201.8661 C81.6206,174.5691 61.1036,142.9591 34.8506,116.1941 C9.9376,93.2621 47.2026,71.9651 65.6116,61.2561 C95.9406,42.6941 127.2296,25.6511 156.8186,5.9351 C160.2276,3.6401 170.3256,-3.0399 170.2726,4.4661 C169.2856,7.2661 169.4966,9.3501 171.7276,11.2381 C184.0556,21.6721 192.6186,35.3481 202.7226,47.6671 C224.8616,73.1811 251.1496,94.4531 272.9736,120.2111 C283.6356,130.5891 297.1856,144.2481 298.6046,159.2081 C295.0906,170.5691 285.3286,162.0011 281.3346,155.4871" id="Fill-1"/><path d="M575.8915,589.8832 C566.3455,580.2682 538.3295,537.4942 526.3585,542.6182 C516.4885,545.7722 446.2175,568.4232 454.5125,577.6912 C478.0185,596.2802 499.9465,617.4092 525.6295,632.9612 C528.8355,634.3532 531.5785,631.2902 533.6985,629.1862 C547.2655,615.7582 564.3765,604.8812 575.8915,589.8832 M597.8055,587.9322 C584.4435,605.3482 563.2585,616.9882 547.2295,632.4322 C538.6045,636.8862 536.4495,655.3262 523.9365,647.2122 C494.7075,630.8712 469.7345,608.3632 446.2215,584.7682 C439.6735,576.6492 435.2525,584.5872 429.0825,582.6152 C434.2485,562.0642 484.0545,538.1382 503.5555,528.9552 C513.4865,525.4452 527.5925,517.5732 537.3275,524.3142 C560.1755,542.8552 578.9195,565.5392 597.8055,587.9322" id="Fill-4"/><path d="M382.6208,218.638 C321.6858,217.262 324.5458,315.849 399.0828,304.319 C454.6878,302.52 428.0948,213.229 382.6208,218.638 M389.8038,317.901 C350.0388,322.12 316.6958,286.597 331.2628,246.633 C331.6458,245.361 331.9648,242.898 331.5638,242.725 C315.3708,234.434 361.0638,202.136 371.0218,206.732 C444.2638,176.978 487.8828,322.308 389.8038,317.901" id="Fill-6"/><path d="M455.1589,405.3333 C458.0999,391.7623 396.3009,431.7793 388.0199,433.5693 C384.0029,435.6733 383.9329,437.4553 387.6799,439.4433 C398.9709,445.4323 409.1349,453.0223 418.8769,461.1983 C483.0809,509.5733 439.2929,465.0903 455.1589,405.3333 M471.7069,394.8083 C448.5339,461.2093 506.9229,538.0083 400.2339,463.4863 C390.4199,455.7403 379.0099,451.1783 367.7659,446.0283 C349.6909,432.2653 380.4289,417.5913 391.8579,412.7863 C404.8609,411.2373 477.3689,367.2783 471.7069,394.8083" id="Fill-8"/></g></g></g><g id="Color/Top" transform="scale(1 1)"><g id="Color/Top/Eyeglass" stroke="none" stroke-width="1" fill="none" fill-rule="evenodd"><g id="Color" transform="translate(222.000000, 73.000000)"><path d="M359.9999,147.4388 C359.3429,177.7578 368.4379,206.5148 390.6179,227.9658 C406.7259,246.1198 414.6149,273.4618 441.1839,279.0798 C523.7059,314.1848 643.7759,271.3708 662.1669,177.8768 C675.2379,133.8938 639.1379,102.9858 614.1799,72.6678 C591.1969,42.4828 553.9299,33.2588 518.6029,26.6678 C502.6219,28.4148 481.9839,28.6478 469.1879,39.0168 C466.5399,42.3228 462.5529,43.4118 459.5279,41.1088 C449.4649,34.8648 440.2969,46.2028 431.0039,49.1868 C393.2559,68.3328 357.8749,102.0168 359.9999,147.4388 M328.0489,159.9148 C325.9109,79.4438 380.3519,32.5478 454.2489,17.3058 C494.4849,-11.0812 556.7539,-0.5472 600.0729,20.2968 C620.1079,31.7048 638.2689,45.9138 649.6219,66.3948 C659.2369,81.2178 674.2909,92.4778 678.5719,110.4208 C709.3839,184.5218 654.2939,271.4028 581.6679,295.3568 C536.1089,316.7998 485.2829,317.9578 437.4839,304.1258 C416.5359,300.0938 393.5589,292.6888 381.9949,273.4398 C352.2709,228.5248 328.9059,219.4158 328.0489,159.9148" id="Fill-1" fill="#FF3C54"/><path d="M206.3994,104.9935 C205.5664,115.7045 203.4434,124.8835 191.6754,115.2465 C177.5294,121.6295 162.5604,147.4105 145.5254,132.7005 C135.6494,127.8165 121.8304,96.0485 111.7324,111.0315 C78.1094,186.5045 62.3004,104.9005 42.7184,116.0705 C31.4044,125.3685 25.7834,142.1015 11.5994,147.1365 C-15.6556,140.5985 12.2984,107.6665 22.6624,95.6705 C67.5024,54.1815 72.5474,119.4105 86.3094,105.9415 C92.7074,92.2525 104.1074,82.8505 118.4034,78.5445 C136.2814,74.7275 142.5564,100.8675 156.8104,108.1085 C168.0794,117.2855 204.3184,57.8015 206.3994,104.9935" id="Fill-3" fill="#3BC5FF"/><path d="M104.0083,306.0555 C110.1723,305.2625 116.4343,308.5875 121.6633,314.1055 C140.2823,337.8795 134.6223,289.5605 171.7983,295.4625 C196.5133,300.5215 183.5483,317.6945 215.6003,306.3015 C240.4843,308.7505 199.5863,363.9805 175.2833,324.1665 C158.5183,311.0085 155.3353,358.1245 134.8973,354.8655 C124.3333,356.3165 117.3833,347.3265 109.9103,341.4635 C91.6233,327.5815 76.9803,361.9365 58.9763,364.7945 C52.6623,367.4325 48.0293,364.1595 44.9823,359.4685 C28.3563,335.3885 82.3263,305.8325 104.0083,306.0555" id="Fill-5" fill="#3BC5FF"/><path d="M74.1562,203.5594 C89.1642,204.1324 106.3912,241.9034 110.0522,228.0014 C113.5842,220.4464 119.7532,215.2824 125.7712,210.2064 C151.2972,187.4094 166.6312,230.3274 179.9582,221.7234 C188.2472,212.3604 193.4202,214.2344 199.4702,223.3304 C201.8442,226.5154 203.5052,234.9704 197.9802,235.0184 C191.3902,234.8394 188.4732,239.0404 185.0752,243.4254 C167.3882,264.5274 148.6352,213.4534 131.4252,235.8724 C98.9062,304.2344 83.6732,220.7734 65.2922,241.5354 C53.3882,249.9624 43.5942,274.7054 27.1822,261.8874 C1.2992,250.1624 59.6032,205.6404 74.1562,203.5594" id="Fill-7" fill="#3BC5FF"/><path d="M717.1328,448.7708 C719.5018,427.4258 746.6128,393.0528 770.3568,410.6678 C779.6328,415.7408 750.0018,463.2418 740.7448,460.5588 C739.2488,460.4918 737.4348,462.0508 736.1788,463.2808 C727.0268,471.7898 712.4248,459.7498 717.1328,448.7708" id="Fill-9" fill="#3BC5FF"/><path d="M670.9233,294.8836 C667.0913,312.8646 653.7143,333.6826 633.5413,335.0046 C613.6273,335.4226 622.1793,308.3736 626.5033,296.9926 C628.9283,278.5186 673.6583,272.7816 670.9233,294.8836" id="Fill-12" fill="#3BC5FF"/><path d="M666.1811,380.7284 C664.1191,366.6084 682.2931,362.8954 690.3771,354.6784 C699.0821,347.6884 708.1791,350.4924 717.2871,352.9414 C730.2891,369.1044 702.4541,388.0234 692.7281,400.0404 C682.6121,407.2284 663.3231,394.0614 666.1811,380.7284" id="Fill-14" fill="#3BC5FF"/></g><g id="Ink" transform="translate(441.000000, 0.000000)" fill="#000"><path d="M510.0908,532.7849 C515.0258,516.2939 526.3558,506.2919 543.0798,503.0379 C550.6198,500.5449 537.7168,482.8999 532.2508,489.4319 C522.5608,497.4489 488.6918,522.7439 510.0908,532.7849 M426.5668,399.9519 C430.5858,394.7569 452.2108,385.3859 448.5288,379.9369 C441.5328,373.9029 429.7958,357.4949 420.6348,368.0369 C419.4528,371.0569 425.7758,372.6099 420.0608,374.1479 C407.6598,377.6719 407.5328,377.7659 414.6878,388.0169 C418.2138,392.1399 421.4668,397.7639 426.5668,399.9519 M469.7528,468.5329 C477.9778,459.2149 485.2698,449.0709 496.9968,443.5659 C499.5848,442.1879 501.0368,439.9059 498.8618,437.5809 C494.3078,433.6949 490.3808,422.6019 483.3918,428.5449 C469.2468,437.7049 447.1418,455.2229 469.7528,468.5329 M567.0418,540.8979 C563.8028,532.1669 559.9918,515.3289 547.3018,522.1979 C536.3538,528.5469 521.2358,539.8099 522.9238,553.6899 C524.8398,558.0909 529.2418,555.0739 532.0688,553.4719 C542.4988,545.9369 556.6648,546.2559 567.0418,540.8979 M479.9158,415.7609 C475.6828,409.9409 464.5498,390.1119 456.5288,396.8549 C450.2798,404.2389 430.7858,410.2409 437.5628,421.7689 C441.0558,426.5959 445.3548,442.1809 452.6618,434.8779 C459.8658,426.0149 474.2108,424.7619 479.9158,415.7609 M492.9608,506.7579 C521.3558,466.6119 541.7968,484.5539 514.1238,455.2159 C506.1018,446.5399 493.9098,469.6799 486.6168,473.8839 C483.0338,478.1629 475.4738,482.6419 479.1698,489.0379 C483.3178,495.1069 484.9968,504.7189 492.9608,506.7579 M429.0568,219.7599 C432.4598,181.2719 405.1428,146.6019 377.9078,122.1119 C341.4298,93.7749 287.1048,91.6329 245.1758,109.0009 C170.6178,135.6079 118.6768,217.7659 160.7238,292.7509 C175.8458,330.7369 209.9238,349.7029 247.7448,359.5169 C348.2658,382.1339 428.3438,324.6929 429.0568,219.7599 M395.2718,369.5219 C389.9208,364.7949 387.2978,352.2059 379.4118,354.9019 C337.0308,378.5429 284.2688,383.8359 238.1508,368.6179 C148.5798,347.3199 108.3508,233.2689 157.9678,157.5599 C211.7698,64.9959 367.5138,48.0159 424.2978,146.1799 C467.4358,202.3779 445.2488,285.4199 402.3558,335.4609 C396.9828,339.7129 397.8368,344.4899 401.8528,349.4459 C411.7538,371.1689 419.0438,323.8979 454.5168,359.5859 C467.8428,371.9929 479.4998,385.9599 489.5078,401.1739 C508.8388,432.1029 536.5058,456.5999 554.0588,488.7059 C557.2328,500.9819 582.5908,510.2089 573.8048,516.9969 C568.6968,523.7489 577.4488,531.7809 578.7958,538.8969 C581.2798,545.4349 589.6948,545.2719 594.4768,549.5239 C611.0128,569.3679 570.4588,586.6999 553.6788,584.1329 C544.2428,582.0769 531.9038,587.1149 524.4198,579.7329 C501.2108,547.7609 479.6008,514.2279 457.4948,481.1359 C442.7078,459.1229 424.5168,439.6909 411.7698,416.2869 C406.2968,402.1959 378.8638,383.1719 395.2718,369.5219" id="Fill-1"/><path d="M65.7031,387.3796 C60.3051,372.2166 126.5331,309.5416 124.8911,341.3706 C116.7731,348.8216 72.3421,409.4786 65.7031,387.3796" id="Fill-4"/><path d="M72.7427,227.2595 C106.2957,233.5505 12.3647,268.8385 2.7627,266.9265 C-15.4183,254.6045 61.6857,226.7065 72.7427,227.2595" id="Fill-6"/><path d="M499.6978,44.2917219 C492.7298,65.4792 458.9448,98.8252 436.5028,100.6662 C419.3468,87.7592 486.8958,44.1252 499.6978,44.2917219" id="Fill-8"/><path d="M347.3843,425.5808 C346.6703,440.3418 344.5373,481.7768 326.0653,451.6588 C311.4883,409.4608 345.7373,378.1588 347.3843,425.5808" id="Fill-10"/><path d="M31.2119,104.8674 C47.4119,107.6534 62.2759,117.7444 75.0449,127.8434 C83.4239,132.1384 89.6939,151.0734 74.7929,147.3174 C64.0119,140.7144 53.4449,133.7674 42.7449,127.0364 C36.5939,123.2144 30.3069,119.7134 23.1379,118.0214 C11.7549,111.0524 20.9309,104.0204 31.2119,104.8674" id="Fill-12"/><path d="M210.5474,412.5959 C205.8584,427.6779 194.8544,452.1319 178.6284,456.2279 C162.4694,451.8919 203.6264,378.3109 210.5474,412.5959" id="Fill-14"/><path d="M165.6001,93.6516 C139.7421,96.9816 124.6511,30.0606 154.8231,51.7066 C162.7211,62.3676 160.9671,77.6876 169.8831,87.2306 C174.1591,90.4626 168.9381,93.9286 165.6001,93.6516" id="Fill-16"/><path d="M270.5605,44.0612 C265.9035,77.5382 234.5785,9.4952 246.4855,0.3672 C261.6675,-4.0248 269.2315,32.2762 270.5605,44.0612" id="Fill-18"/><path d="M553.3047,295.9245 C551.8847,297.3565 550.8227,300.0305 548.5007,299.5965 C537.5597,296.1785 526.3047,298.4515 515.2177,297.8595 C469.5657,288.1215 523.4707,263.4005 553.3047,295.9245" id="Fill-20"/><path d="M519.4438,197.3884 C512.5988,199.1394 496.6728,190.5614 508.3248,185.5674 C523.6618,183.8444 543.0998,184.0904 556.4938,190.3684 C545.0448,194.6784 531.5848,194.6574 519.4438,197.3884" id="Fill-22"/><path d="M362.749,36.7707 C362.114,27.3737 369.243,0.1637 379.853,16.8207 C380.663,28.8947 364.448,72.4027 362.749,36.7707" id="Fill-24"/><path d="M285.2485,250.0105 C247.6305,208.4945 260.3575,174.9735 240.0145,197.5445 C225.6845,215.4955 222.3705,238.6225 217.2565,260.3545 C214.7835,275.0025 278.4945,256.0885 285.2485,250.0105 M324.3745,226.8755 C347.5505,213.6605 365.0205,186.2055 361.2375,159.0625 C341.8315,147.5515 310.5825,154.5105 289.4805,162.9505 C286.2285,164.2715 286.0905,166.1035 289.0345,168.5855 C307.1505,183.8965 317.2295,204.5885 324.3745,226.8755 M224.7155,277.7605 C200.5545,281.2905 209.7405,268.7755 209.6265,251.5885 C211.5185,240.1395 195.0225,246.9955 189.2275,241.5295 C182.2815,233.1355 198.4235,230.5325 204.2145,230.9095 C212.3655,231.2565 213.9925,230.4845 215.7365,221.5495 C217.2065,216.2345 220.5955,210.3095 220.2555,204.9065 C218.2485,199.8685 206.6365,196.5215 201.7105,192.5375 C197.4465,190.5035 199.9905,184.1555 204.0715,183.9025 C213.2895,182.7125 217.9905,191.9335 226.0535,194.0255 C239.5955,173.7375 257.0955,178.6065 237.8185,154.3995 C234.3855,150.1755 238.3175,146.6825 242.2975,144.1905 C249.4835,143.7755 251.7545,154.2985 256.4435,158.6445 C263.1225,165.4915 273.6895,152.4685 281.1335,150.4005 C290.4825,146.0485 270.7825,125.8565 282.1895,123.3355 C299.5895,124.0675 290.7115,142.5385 302.3535,143.2695 C309.6955,140.2905 333.1755,143.7475 333.7245,135.1325 C331.9705,127.4855 328.4345,118.8235 335.0945,112.5695 C337.0375,110.2505 341.0105,110.8975 342.2495,113.7605 C342.7045,119.0125 348.0405,122.0075 347.1965,127.5735 C336.4305,149.7605 366.7025,135.3085 377.0835,143.8425 C386.6795,150.1745 369.5195,153.6625 374.8155,161.7255 C382.5975,232.3405 285.6675,280.2475 224.7155,277.7605" id="Fill-26"/></g></g></g></g></svg>